<svg xmlns="http://www.w3.org/2000/svg" version="1.1" xmlns:xlink="http://www.w3.org/1999/xlink" xmlns:svgjs="http://svgjs.dev/svgjs" width="2000" height="555" viewBox="0 0 2000 555"><g transform="matrix(1,0,0,1,-1.2121212121212466,-0.1745857198595786)"><svg viewBox="0 0 396 110" data-background-color="#ffffff" preserveAspectRatio="xMidYMid meet" height="555" width="2000" xmlns="http://www.w3.org/2000/svg" xmlns:xlink="http://www.w3.org/1999/xlink"><g id="tight-bounds" transform="matrix(1,0,0,1,0.2400000000000091,0.034602575107300027)"><svg viewBox="0 0 395.52 109.9307948497854" height="109.9307948497854" width="395.52"><g><svg viewBox="0 0 395.52 109.9307948497854" height="109.9307948497854" width="395.52"><g><svg viewBox="0 0 395.52 109.9307948497854" height="109.9307948497854" width="395.52"><g id="textblocktransform"><svg viewBox="0 0 395.52 109.9307948497854" height="109.9307948497854" width="395.52" id="textblock"><g><svg viewBox="0 0 395.52 109.9307948497854" height="109.9307948497854" width="395.52"><g transform="matrix(1,0,0,1,0,0)"><svg width="395.52" viewBox="2.69 -38.72 142.2 39.53" height="109.9307948497854" data-palette-color="#3c82f6"><path d="M2.73-21.12L2.81-33.2 2.73-35.3Q2.73-36.65 3-36.96L3-36.96Q3.66-36.99 5.51-36.99 7.35-36.99 8.69-36.96L8.69-36.96 12.13-36.91Q13.09-36.99 14.89-36.99 16.7-36.99 17.19-36.5L17.19-36.5Q17.07-30.54 17.07-22.34L17.07-22.34 17.92-22.19Q18.29-23.14 19.25-25.05 20.21-26.95 20.36-27.27L20.36-27.27 20.63-27.86Q20.73-28.08 21.52-29.75 22.31-31.42 23.14-33.51 23.97-35.6 24.93-36.79L24.93-36.79Q26.64-36.82 29.09-36.82 31.54-36.82 34.81-36.73 38.09-36.65 39.72-36.65L39.72-36.65Q32.76-24.07 29.83-19.24L29.83-19.24 30.4-18.33Q31.4-17.09 34.77-11.23 38.13-5.37 39.65-2.91L39.65-2.91 40.23-1.95Q41.31-0.17 41.31 0.07 41.31 0.32 41.16 0.51L41.16 0.51 41.02 0.51Q39.65 0.46 38.81 0.46 37.96 0.46 36.6 0.51L36.6 0.51 25.63 0.51Q21.88-6.52 17.82-14.75L17.82-14.75Q17.63-12.79 17.24-5.52L17.24-5.52 17.24-5.2 17.29 0.34Q16.99 0.78 14.72 0.78L14.72 0.78 14.21 0.76 12.89 0.76 5.98 0.81 3.74 0.81Q3.05 0.81 2.76 0.29L2.76 0.29 2.69 0.22 2.69-3.49 2.73-7.32 2.73-21.12ZM68.04-28.96L68.04-28.96 69.85-17.29 69.89-17.29Q70.24-19.14 70.77-22.61L70.77-22.61 71.16-25.15 71.51-26.95Q71.68-28.61 71.85-29.25L71.85-29.25 87.84-29.25Q86.42-22.63 82.61-5.35L82.61-5.35 81.25 0.02 65.72 0.02 65.18-4.05Q64.77-6.74 64.32-10.49 63.86-14.23 63.82-14.23L63.82-14.23 61.67 0.02 45.14 0.02Q44.31-3.83 43.45-9.34 42.6-14.84 42.43-15.92L42.43-15.92 41.92-19.17Q41.92-19.19 40.21-29.27L40.21-29.27 48.39-29.27 56.52-29.3Q56.56-28.64 56.64-28.32L56.64-28.32 56.78-27.27Q57.66-19.58 57.86-17.02L57.86-17.02 57.96-17.02Q58.05-17.6 58.25-18.98 58.44-20.36 58.57-21.12L58.57-21.12 59.76-28.27 59.81-28.91Q62.47-28.96 68.04-28.96ZM89.69-38.48L104.78-38.53 104.8-31.84 89.77-31.84Q89.77-34.18 89.72-35.18L89.72-35.18 89.69-38.48ZM89.69-38.48L89.45-38.48 89.69-38.72 89.69-38.48ZM104.88-8.5L104.88-7.74 104.9-7.52 104.93-3.86Q104.93-2.86 104.83-1.46 104.73-0.07 104.66-0.02L104.66-0.02 104.22 0.02 95.33 0.02 94.31 0.12Q90.5 0.12 89.67 0.02L89.67 0.02 89.67-0.15 89.64-0.61 89.64-1.71Q89.64-6.52 89.79-9.69L89.79-9.69 90.06-28.49 90.06-29.22 91.96-29.25 92.38-29.22 93.09-29.22 93.7-29.2 94.01-29.22 95.77-29.22 96.14-29.25 104.46-29.15Q104.56-29.17 104.61-29.17 104.66-29.17 104.66-29.03L104.66-29.03 104.68-26.71Q104.71-24.39 104.78-20.5 104.85-16.6 104.85-14.99L104.85-14.99 104.83-11.94 104.83-10.64 104.9-9.35 104.9-8.59Q104.9-8.57 104.88-8.5L104.88-8.5ZM127.12-29.25L140.2-29.25 140.67-29.22 142.55-29.22Q142.69-29.22 142.97-29.25 143.25-29.27 143.45-29.27L143.45-29.27Q143.23-28.13 142.01-26.2L142.01-26.2Q141.59-25.71 141.25-25.02L141.25-25.02 141.25-25.05Q140.01-23.17 136.56-17.19L136.56-17.19Q138.32-13.4 139.74-10.51 141.15-7.62 141.94-6.01L141.94-6.01 144.89 0.02 128.09 0.02 126.41-5Q125.38-7.98 123.89-12.87L123.89-12.87 122.97-10.77 122.97-0.02Q120.6 0.05 115.42 0.05 110.25 0.05 107.32 0L107.32 0 107.32-38.31 115.08-38.31 122.84-38.33Q122.84-35.38 122.91-27.71 122.97-20.04 122.97-16.94L122.97-16.94 123.89-19.68Q124.77-22.49 127.12-29.25L127.12-29.25Z" opacity="1" transform="matrix(1,0,0,1,0,0)" fill="#3c82f6" class="wordmark-text-0" data-fill-palette-color="primary" id="text-0"></path></svg></g></svg></g></svg></g></svg></g></svg></g><defs></defs></svg><rect width="395.52" height="109.9307948497854" fill="none" stroke="none" visibility="hidden"></rect></g></svg></g></svg>